<?xml version="1.0" encoding="UTF-8" standalone="no"?>
<svg width="353px" height="352px" viewBox="0 0 353 352" version="1.1" xmlns="http://www.w3.org/2000/svg" xmlns:xlink="http://www.w3.org/1999/xlink" xmlns:sketch="http://www.bohemiancoding.com/sketch/ns">
    <!-- Generator: Sketch 3.3.2 (12043) - http://www.bohemiancoding.com/sketch -->
    <title>Group</title>
    <desc>Created with Sketch.</desc>
    <defs></defs>
    <g id="Welcome" stroke="none" stroke-width="1" fill="none" fill-rule="evenodd" sketch:type="MSPage">
        <g id="Tablet-Portrait" sketch:type="MSArtboardGroup" transform="translate(-207.000000, -249.000000)" stroke="#979797">
            <g id="Group" sketch:type="MSLayerGroup" transform="translate(182.000000, 223.000000)">
                <circle id="Oval-9" fill="#FFFFFF" sketch:type="MSShapeGroup" cx="202" cy="202" r="175"></circle>
                <path d="M202,201.077761 C197.837889,201.685384 193.580686,202 189.25,202 C140.925084,202 101.75,162.824916 101.75,114.5 C101.75,66.1750844 140.925084,27 189.25,27 C193.580686,27 197.837889,27.3146162 202,27.9222391 C159.718272,34.0949114 127.25,70.5057701 127.25,114.5 C127.25,158.49423 159.718272,194.905089 202,201.077761 Z" id="Oval-7" fill="#E03D3D" sketch:type="MSShapeGroup"></path>
                <path d="M179.656616,218.096326 C175.494505,218.703949 171.237302,219.018565 166.906616,219.018565 C118.581701,219.018565 79.4066165,179.843481 79.4066165,131.518565 C79.4066165,83.1936496 118.581701,44.0185652 166.906616,44.0185652 C171.237302,44.0185652 175.494505,44.3331814 179.656616,44.9408043 C137.374888,51.1134766 104.906616,87.5243353 104.906616,131.518565 C104.906616,175.512795 137.374888,211.923654 179.656616,218.096326 Z" id="Oval-7-Copy-2" fill="#CD6D6D" sketch:type="MSShapeGroup" transform="translate(129.531616, 131.518565) rotate(-16.000000) translate(-129.531616, -131.518565) "></path>
                <path d="M151.337795,296.682314 C147.175684,297.289937 142.918481,297.604553 138.587795,297.604553 C90.2628794,297.604553 51.087795,258.429469 51.087795,210.104553 C51.087795,161.779638 90.2628794,122.604553 138.587795,122.604553 C142.918481,122.604553 147.175684,122.91917 151.337795,123.526793 C109.056067,129.699465 76.587795,166.110324 76.587795,210.104553 C76.587795,254.098783 109.056067,290.509642 151.337795,296.682314 Z" id="Oval-7-Copy-5" fill="#E8D2AE" sketch:type="MSShapeGroup" transform="translate(101.212795, 210.104553) rotate(-65.000000) translate(-101.212795, -210.104553) "></path>
                <path d="M157.490334,324.049513 C153.328223,324.657136 149.071019,324.971752 144.740334,324.971752 C96.4154181,324.971752 57.2403337,285.796668 57.2403337,237.471752 C57.2403337,189.146837 96.4154181,149.971752 144.740334,149.971752 C149.071019,149.971752 153.328223,150.286368 157.490334,150.893991 C115.208605,157.066663 82.7403337,193.477522 82.7403337,237.471752 C82.7403337,281.465982 115.208605,317.876841 157.490334,324.049513 Z" id="Oval-7-Copy-6" fill="#8B572A" sketch:type="MSShapeGroup" transform="translate(107.365334, 237.471752) rotate(279.000000) translate(-107.365334, -237.471752) "></path>
                <path d="M172.010615,349.748231 C167.848503,350.355854 163.5913,350.670471 159.260615,350.670471 C110.935699,350.670471 71.7606146,311.495386 71.7606146,263.170471 C71.7606146,214.845555 110.935699,175.670471 159.260615,175.670471 C163.5913,175.670471 167.848503,175.985087 172.010615,176.59271 C129.728886,182.765382 97.2606146,219.176241 97.2606146,263.170471 C97.2606146,307.1647 129.728886,343.575559 172.010615,349.748231 Z" id="Oval-7-Copy-7" fill="#B78C66" sketch:type="MSShapeGroup" transform="translate(121.885615, 263.170471) rotate(262.000000) translate(-121.885615, -263.170471) "></path>
                <path d="M193.410006,370.078719 C189.247895,370.686342 184.990692,371.000958 180.660006,371.000958 C132.335091,371.000958 93.1600063,331.825873 93.1600063,283.500958 C93.1600063,235.176042 132.335091,196.000958 180.660006,196.000958 C184.990692,196.000958 189.247895,196.315574 193.410006,196.923197 C151.128278,203.095869 118.660006,239.506728 118.660006,283.500958 C118.660006,327.495188 151.128278,363.906047 193.410006,370.078719 Z" id="Oval-7-Copy-8" fill="#CCA684" sketch:type="MSShapeGroup" transform="translate(143.285006, 283.500958) rotate(245.000000) translate(-143.285006, -283.500958) "></path>
                <path d="M219.818406,383.264284 C215.656295,383.871907 211.399091,384.186523 207.068406,384.186523 C158.74349,384.186523 119.568406,345.011439 119.568406,296.686523 C119.568406,248.361607 158.74349,209.186523 207.068406,209.186523 C211.399091,209.186523 215.656295,209.501139 219.818406,210.108762 C177.536677,216.281434 145.068406,252.692293 145.068406,296.686523 C145.068406,340.680753 177.536677,377.091612 219.818406,383.264284 Z" id="Oval-7-Copy-9" fill="#7ED321" sketch:type="MSShapeGroup" transform="translate(169.693406, 296.686523) rotate(228.000000) translate(-169.693406, -296.686523) "></path>
                <path d="M247.185927,388.106022 C243.023815,388.713645 238.766612,389.028261 234.435927,389.028261 C186.111011,389.028261 146.935927,349.853177 146.935927,301.528261 C146.935927,253.203345 186.111011,214.028261 234.435927,214.028261 C238.766612,214.028261 243.023815,214.342877 247.185927,214.9505 C204.904198,221.123172 172.435927,257.534031 172.435927,301.528261 C172.435927,345.522491 204.904198,381.93335 247.185927,388.106022 Z" id="Oval-7-Copy-10" fill="#A0CC71" sketch:type="MSShapeGroup" transform="translate(197.060927, 301.528261) rotate(212.000000) translate(-197.060927, -301.528261) "></path>
                <path d="M276.515247,384.781322 C272.353136,385.388945 268.095933,385.703561 263.765247,385.703561 C215.440332,385.703561 176.265247,346.528477 176.265247,298.203561 C176.265247,249.878646 215.440332,210.703561 263.765247,210.703561 C268.095933,210.703561 272.353136,211.018177 276.515247,211.6258 C234.233519,217.798473 201.765247,254.209331 201.765247,298.203561 C201.765247,342.197791 234.233519,378.60865 276.515247,384.781322 Z" id="Oval-7-Copy-11" fill="#C6D8B2" sketch:type="MSShapeGroup" transform="translate(226.390247, 298.203561) rotate(195.000000) translate(-226.390247, -298.203561) "></path>
                <path d="M162.86973,240.614292 C158.707619,241.221915 154.450416,241.536531 150.11973,241.536531 C101.794814,241.536531 62.61973,202.361447 62.61973,154.036531 C62.61973,105.711616 101.794814,66.5365312 150.11973,66.5365312 C154.450416,66.5365312 158.707619,66.8511474 162.86973,67.4587703 C120.588002,73.6314426 88.11973,110.042301 88.11973,154.036531 C88.11973,198.030761 120.588002,234.44162 162.86973,240.614292 Z" id="Oval-7-Copy-3" fill="#F6A623" sketch:type="MSShapeGroup" transform="translate(112.744730, 154.036531) rotate(-32.000000) translate(-112.744730, -154.036531) "></path>
                <path d="M152.939932,266.887043 C148.777821,267.494666 144.520617,267.809282 140.189932,267.809282 C91.8650161,267.809282 52.6899317,228.634198 52.6899317,180.309282 C52.6899317,131.984367 91.8650161,92.8092824 140.189932,92.8092824 C144.520617,92.8092824 148.777821,93.1238986 152.939932,93.7315215 C110.658203,99.9041938 78.1899317,136.315052 78.1899317,180.309282 C78.1899317,224.303512 110.658203,260.714371 152.939932,266.887043 Z" id="Oval-7-Copy-4" fill="#E5AA48" sketch:type="MSShapeGroup" transform="translate(102.814932, 180.309282) rotate(-48.000000) translate(-102.814932, -180.309282) "></path>
                <path d="M229.615639,190.297208 C225.453527,190.904831 221.196324,191.219447 216.865639,191.219447 C168.540723,191.219447 129.365639,152.044363 129.365639,103.719447 C129.365639,55.3945319 168.540723,16.2194475 216.865639,16.2194475 C221.196324,16.2194475 225.453527,16.5340636 229.615639,17.1416866 C187.33391,23.3143588 154.865639,59.7252175 154.865639,103.719447 C154.865639,147.713677 187.33391,184.124536 229.615639,190.297208 Z" id="Oval-7-Copy-12" fill="#B8E986" sketch:type="MSShapeGroup" transform="translate(179.490639, 103.719447) rotate(17.000000) translate(-179.490639, -103.719447) "></path>
                <path d="M259.176534,188.061746 C255.014423,188.669369 250.757219,188.983985 246.426534,188.983985 C198.101618,188.983985 158.926534,149.808901 158.926534,101.483985 C158.926534,53.1590695 198.101618,13.9839851 246.426534,13.9839851 C250.757219,13.9839851 255.014423,14.2986013 259.176534,14.9062243 C216.894805,21.0788965 184.426534,57.4897552 184.426534,101.483985 C184.426534,145.478215 216.894805,181.889074 259.176534,188.061746 Z" id="Oval-7-Copy-13" fill="#C8FAEF" sketch:type="MSShapeGroup" transform="translate(209.051534, 101.483985) rotate(34.000000) translate(-209.051534, -101.483985) "></path>
                <path d="M288.099344,194.566732 C283.937233,195.174355 279.68003,195.488971 275.349344,195.488971 C227.024429,195.488971 187.849344,156.313887 187.849344,107.988971 C187.849344,59.6640555 227.024429,20.4889712 275.349344,20.4889712 C279.68003,20.4889712 283.937233,20.8035873 288.099344,21.4112103 C245.817616,27.5838825 213.349344,63.9947412 213.349344,107.988971 C213.349344,151.983201 245.817616,188.39406 288.099344,194.566732 Z" id="Oval-7-Copy-14" fill="#50E3C2" sketch:type="MSShapeGroup" transform="translate(237.974344, 107.988971) rotate(51.000000) translate(-237.974344, -107.988971) "></path>
                <path d="M313.856492,209.243692 C309.69438,209.851315 305.437177,210.165932 301.106492,210.165932 C252.781576,210.165932 213.606492,170.990847 213.606492,122.665932 C213.606492,74.341016 252.781576,35.1659316 301.106492,35.1659316 C305.437177,35.1659316 309.69438,35.4805478 313.856492,36.0881708 C271.574763,42.260843 239.106492,78.6717017 239.106492,122.665932 C239.106492,166.660162 271.574763,203.07102 313.856492,209.243692 Z" id="Oval-7-Copy-15" fill="#C7D0DA" sketch:type="MSShapeGroup" transform="translate(263.731492, 122.665932) rotate(68.000000) translate(-263.731492, -122.665932) "></path>
                <path d="M334.197046,230.810001 C330.034935,231.417624 325.777732,231.73224 321.447046,231.73224 C273.12213,231.73224 233.947046,192.557155 233.947046,144.23224 C233.947046,95.9073242 273.12213,56.7322398 321.447046,56.7322398 C325.777732,56.7322398 330.034935,57.046856 334.197046,57.6544789 C291.915318,63.8271512 259.447046,100.23801 259.447046,144.23224 C259.447046,188.22647 291.915318,224.637328 334.197046,230.810001 Z" id="Oval-7-Copy-16" fill="#8EAFD5" sketch:type="MSShapeGroup" transform="translate(284.072046, 144.232240) rotate(85.000000) translate(-284.072046, -144.232240) "></path>
                <path d="M347.343437,257.380966 C343.181326,257.988589 338.924123,258.303206 334.593437,258.303206 C286.268521,258.303206 247.093437,219.128121 247.093437,170.803206 C247.093437,122.47829 286.268521,83.3032055 334.593437,83.3032055 C338.924123,83.3032055 343.181326,83.6178217 347.343437,84.2254446 C305.061709,90.3981169 272.593437,126.808976 272.593437,170.803206 C272.593437,214.797435 305.061709,251.208294 347.343437,257.380966 Z" id="Oval-7-Copy-17" fill="#4990E2" sketch:type="MSShapeGroup" transform="translate(297.218437, 170.803206) rotate(102.000000) translate(-297.218437, -170.803206) "></path>
                <path d="M352.106335,284.884776 C347.944224,285.492399 343.68702,285.807015 339.356335,285.807015 C291.031419,285.807015 251.856335,246.63193 251.856335,198.307015 C251.856335,149.982099 291.031419,110.807015 339.356335,110.807015 C343.68702,110.807015 347.944224,111.121631 352.106335,111.729254 C309.824607,117.901926 277.356335,154.312785 277.356335,198.307015 C277.356335,242.301245 309.824607,278.712103 352.106335,284.884776 Z" id="Oval-7-Copy-18" fill="#116BD4" sketch:type="MSShapeGroup" transform="translate(301.981335, 198.307015) rotate(118.000000) translate(-301.981335, -198.307015) "></path>
                <path d="M348.660241,314.3291 C344.49813,314.936723 340.240926,315.251339 335.910241,315.251339 C287.585325,315.251339 248.410241,276.076255 248.410241,227.751339 C248.410241,179.426424 287.585325,140.251339 335.910241,140.251339 C340.240926,140.251339 344.49813,140.565955 348.660241,141.173578 C306.378512,147.346251 273.910241,183.757109 273.910241,227.751339 C273.910241,271.745569 306.378512,308.156428 348.660241,314.3291 Z" id="Oval-7-Copy-19" fill="#D5B6DC" sketch:type="MSShapeGroup" transform="translate(298.535241, 227.751339) rotate(135.000000) translate(-298.535241, -227.751339) "></path>
                <path d="M336.756037,341.479307 C332.593926,342.08693 328.336723,342.401546 324.006037,342.401546 C275.681122,342.401546 236.506037,303.226462 236.506037,254.901546 C236.506037,206.576631 275.681122,167.401546 324.006037,167.401546 C328.336723,167.401546 332.593926,167.716163 336.756037,168.323786 C294.474309,174.496458 262.006037,210.907316 262.006037,254.901546 C262.006037,298.895776 294.474309,335.306635 336.756037,341.479307 Z" id="Oval-7-Copy-20" fill="#CB5BE2" sketch:type="MSShapeGroup" transform="translate(286.631037, 254.901546) rotate(152.000000) translate(-286.631037, -254.901546) "></path>
                <path d="M320.042449,361.628523 C315.880338,362.236146 311.623134,362.550762 307.292449,362.550762 C258.967533,362.550762 219.792449,323.375677 219.792449,275.050762 C219.792449,226.725846 258.967533,187.550762 307.292449,187.550762 C311.623134,187.550762 315.880338,187.865378 320.042449,188.473001 C277.76072,194.645673 245.292449,231.056532 245.292449,275.050762 C245.292449,319.044992 277.76072,355.45585 320.042449,361.628523 Z" id="Oval-7-Copy-21" fill="#BD0FE1" sketch:type="MSShapeGroup" transform="translate(269.917449, 275.050762) rotate(167.000000) translate(-269.917449, -275.050762) "></path>
                <path d="M301.75,375.077761 C297.587889,375.685384 293.330686,376 289,376 C240.675084,376 201.5,336.824916 201.5,288.5 C201.5,240.175084 240.675084,201 289,201 C293.330686,201 297.587889,201.314616 301.75,201.922239 C259.468272,208.094911 227,244.50577 227,288.5 C227,332.49423 259.468272,368.905089 301.75,375.077761 Z" id="Oval-7-Copy-22" fill="#4E8F07" sketch:type="MSShapeGroup" transform="translate(251.625000, 288.500000) rotate(180.000000) translate(-251.625000, -288.500000) "></path>
            </g>
        </g>
    </g>
</svg>