<?xml version="1.0" encoding="UTF-8" standalone="no"?>
<svg width="352px" height="351px" viewBox="0 0 352 351" version="1.1" xmlns="http://www.w3.org/2000/svg" xmlns:xlink="http://www.w3.org/1999/xlink" xmlns:sketch="http://www.bohemiancoding.com/sketch/ns">
    <!-- Generator: Sketch 3.3.2 (12043) - http://www.bohemiancoding.com/sketch -->
    <title>Group</title>
    <desc>Created with Sketch.</desc>
    <defs></defs>
    <g id="Welcome" stroke="none" stroke-width="1" fill="none" fill-rule="evenodd" sketch:type="MSPage">
        <g id="Tablet-Portrait" sketch:type="MSArtboardGroup" transform="translate(-207.000000, -249.000000)">
            <g id="Group" sketch:type="MSLayerGroup" transform="translate(182.000000, 225.000000)">
                <circle id="Oval-9" fill="#FFFFFF" sketch:type="MSShapeGroup" cx="202" cy="200" r="175"></circle>
                <path d="M202,199.077761 C197.837889,199.685384 193.580686,200 189.25,200 C140.925084,200 101.75,160.824916 101.75,112.5 C101.75,64.1750844 140.925084,25 189.25,25 C193.580686,25 197.837889,25.3146162 202,25.9222391 C159.718272,32.0949114 127.25,68.5057701 127.25,112.5 C127.25,156.49423 159.718272,192.905089 202,199.077761 Z" id="Oval-7" fill="#E03D3D" sketch:type="MSShapeGroup"></path>
                <path d="M179.656616,216.096326 C175.494505,216.703949 171.237302,217.018565 166.906616,217.018565 C118.581701,217.018565 79.4066165,177.843481 79.4066165,129.518565 C79.4066165,81.1936496 118.581701,42.0185652 166.906616,42.0185652 C171.237302,42.0185652 175.494505,42.3331814 179.656616,42.9408043 C137.374888,49.1134766 104.906616,85.5243353 104.906616,129.518565 C104.906616,173.512795 137.374888,209.923654 179.656616,216.096326 Z" id="Oval-7-Copy-2" fill="#CD6D6D" sketch:type="MSShapeGroup" transform="translate(129.531616, 129.518565) rotate(-16.000000) translate(-129.531616, -129.518565) "></path>
                <path d="M151.209572,292.929189 C147.047461,293.536812 142.790258,293.851428 138.459572,293.851428 C90.1346566,293.851428 50.9595722,254.676344 50.9595722,206.351428 C50.9595722,158.026513 90.1346566,118.851428 138.459572,118.851428 C142.790258,118.851428 147.047461,119.166044 151.209572,119.773667 C108.927844,125.94634 76.4595722,162.357198 76.4595722,206.351428 C76.4595722,250.345658 108.927844,286.756517 151.209572,292.929189 Z" id="Oval-7-Copy-5" fill="#E8D2AE" sketch:type="MSShapeGroup" transform="translate(101.084572, 206.351428) rotate(-64.000000) translate(-101.084572, -206.351428) "></path>
                <path d="M156.892458,320.401084 C152.730347,321.008707 148.473144,321.323323 144.142458,321.323323 C95.8175424,321.323323 56.642458,282.148239 56.642458,233.823323 C56.642458,185.498408 95.8175424,146.323323 144.142458,146.323323 C148.473144,146.323323 152.730347,146.637939 156.892458,147.245562 C114.61073,153.418235 82.142458,189.829093 82.142458,233.823323 C82.142458,277.817553 114.61073,314.228412 156.892458,320.401084 Z" id="Oval-7-Copy-6" fill="#8B572A" sketch:type="MSShapeGroup" transform="translate(106.767458, 233.823323) rotate(280.000000) translate(-106.767458, -233.823323) "></path>
                <path d="M169.891054,344.91379 C165.728943,345.521413 161.47174,345.836029 157.141054,345.836029 C108.816139,345.836029 69.6410542,306.660945 69.6410542,258.336029 C69.6410542,210.011113 108.816139,170.836029 157.141054,170.836029 C161.47174,170.836029 165.728943,171.150645 169.891054,171.758268 C127.609326,177.93094 95.1410542,214.341799 95.1410542,258.336029 C95.1410542,302.330259 127.609326,338.741118 169.891054,344.91379 Z" id="Oval-7-Copy-7" fill="#B78C66" sketch:type="MSShapeGroup" transform="translate(119.766054, 258.336029) rotate(264.000000) translate(-119.766054, -258.336029) "></path>
                <path d="M189.164763,364.92933 C185.002651,365.536953 180.745448,365.851569 176.414763,365.851569 C128.089847,365.851569 88.9147626,326.676484 88.9147626,278.351569 C88.9147626,230.026653 128.089847,190.851569 176.414763,190.851569 C180.745448,190.851569 185.002651,191.166185 189.164763,191.773808 C146.883034,197.94648 114.414763,234.357339 114.414763,278.351569 C114.414763,322.345799 146.883034,358.756657 189.164763,364.92933 Z" id="Oval-7-Copy-8" fill="#CCA684" sketch:type="MSShapeGroup" transform="translate(139.039763, 278.351569) rotate(248.000000) translate(-139.039763, -278.351569) "></path>
                <path d="M213.225864,378.823423 C209.063753,379.431046 204.80655,379.745662 200.475864,379.745662 C152.150948,379.745662 112.975864,340.570578 112.975864,292.245662 C112.975864,243.920747 152.150948,204.745662 200.475864,204.745662 C204.80655,204.745662 209.063753,205.060278 213.225864,205.667901 C170.944136,211.840574 138.475864,248.251432 138.475864,292.245662 C138.475864,336.239892 170.944136,372.650751 213.225864,378.823423 Z" id="Oval-7-Copy-9" fill="#7ED321" sketch:type="MSShapeGroup" transform="translate(163.100864, 292.245662) rotate(232.000000) translate(-163.100864, -292.245662) "></path>
                <path d="M240.204909,385.596382 C236.042798,386.204005 231.785595,386.518621 227.454909,386.518621 C179.129994,386.518621 139.954909,347.343537 139.954909,299.018621 C139.954909,250.693706 179.129994,211.518621 227.454909,211.518621 C231.785595,211.518621 236.042798,211.833237 240.204909,212.44086 C197.923181,218.613533 165.454909,255.024391 165.454909,299.018621 C165.454909,343.012851 197.923181,379.42371 240.204909,385.596382 Z" id="Oval-7-Copy-10" fill="#A0CC71" sketch:type="MSShapeGroup" transform="translate(190.079909, 299.018621) rotate(216.000000) translate(-190.079909, -299.018621) "></path>
                <path d="M268.009971,384.661805 C263.84786,385.269428 259.590657,385.584044 255.259971,385.584044 C206.935056,385.584044 167.759971,346.408959 167.759971,298.084044 C167.759971,249.759128 206.935056,210.584044 255.259971,210.584044 C259.590657,210.584044 263.84786,210.89866 268.009971,211.506283 C225.728243,217.678955 193.259971,254.089814 193.259971,298.084044 C193.259971,342.078274 225.728243,378.489132 268.009971,384.661805 Z" id="Oval-7-Copy-11" fill="#C6D8B2" sketch:type="MSShapeGroup" transform="translate(217.884971, 298.084044) rotate(200.000000) translate(-217.884971, -298.084044) "></path>
                <path d="M162.86973,238.614292 C158.707619,239.221915 154.450416,239.536531 150.11973,239.536531 C101.794814,239.536531 62.61973,200.361447 62.61973,152.036531 C62.61973,103.711616 101.794814,64.5365312 150.11973,64.5365312 C154.450416,64.5365312 158.707619,64.8511474 162.86973,65.4587703 C120.588002,71.6314426 88.11973,108.042301 88.11973,152.036531 C88.11973,196.030761 120.588002,232.44162 162.86973,238.614292 Z" id="Oval-7-Copy-3" fill="#F6A623" sketch:type="MSShapeGroup" transform="translate(112.744730, 152.036531) rotate(-32.000000) translate(-112.744730, -152.036531) "></path>
                <path d="M152.939932,264.887043 C148.777821,265.494666 144.520617,265.809282 140.189932,265.809282 C91.8650161,265.809282 52.6899317,226.634198 52.6899317,178.309282 C52.6899317,129.984367 91.8650161,90.8092824 140.189932,90.8092824 C144.520617,90.8092824 148.777821,91.1238986 152.939932,91.7315215 C110.658203,97.9041938 78.1899317,134.315052 78.1899317,178.309282 C78.1899317,222.303512 110.658203,258.714371 152.939932,264.887043 Z" id="Oval-7-Copy-4" fill="#E5AA48" sketch:type="MSShapeGroup" transform="translate(102.814932, 178.309282) rotate(-48.000000) translate(-102.814932, -178.309282) "></path>
                <path d="M227.904156,188.698102 C223.742045,189.305725 219.484841,189.620341 215.154156,189.620341 C166.82924,189.620341 127.654156,150.445256 127.654156,102.120341 C127.654156,53.7954253 166.82924,14.6203409 215.154156,14.6203409 C219.484841,14.6203409 223.742045,14.934957 227.904156,15.54258 C185.622427,21.7152522 153.154156,58.1261109 153.154156,102.120341 C153.154156,146.114571 185.622427,182.52543 227.904156,188.698102 Z" id="Oval-7-Copy-12" fill="#B8E986" sketch:type="MSShapeGroup" transform="translate(177.779156, 102.120341) rotate(16.000000) translate(-177.779156, -102.120341) "></path>
                <path d="M232.123145,188.595741 C227.961034,189.203363 223.703831,189.51798 219.373145,189.51798 C171.048229,189.51798 131.873145,150.342895 131.873145,102.01798 C131.873145,53.6930641 171.048229,14.5179797 219.373145,14.5179797 C223.703831,14.5179797 227.961034,14.8325959 232.123145,15.4402188 C189.841417,21.612891 157.373145,58.0237498 157.373145,102.01798 C157.373145,146.01221 189.841417,182.423068 232.123145,188.595741 Z" id="Oval-7-Copy-24" fill="#B8E986" sketch:type="MSShapeGroup" transform="translate(181.998145, 102.017980) rotate(19.000000) translate(-181.998145, -102.017980) "></path>
                <path d="M269.559559,187.41466 C265.397448,188.022283 261.140245,188.336899 256.809559,188.336899 C208.484643,188.336899 169.309559,149.161814 169.309559,100.836899 C169.309559,52.5119832 208.484643,13.3368988 256.809559,13.3368988 C261.140245,13.3368988 265.397448,13.651515 269.559559,14.2591379 C227.277831,20.4318101 194.809559,56.8426689 194.809559,100.836899 C194.809559,144.831129 227.277831,181.241987 269.559559,187.41466 Z" id="Oval-7-Copy-13" fill="#C8FAEF" sketch:type="MSShapeGroup" transform="translate(219.434559, 100.836899) rotate(40.000000) translate(-219.434559, -100.836899) "></path>
                <path d="M261.035589,186.980878 C256.873478,187.588501 252.616275,187.903117 248.285589,187.903117 C199.960673,187.903117 160.785589,148.728033 160.785589,100.403117 C160.785589,52.0782018 199.960673,12.9031174 248.285589,12.9031174 C252.616275,12.9031174 256.873478,13.2177336 261.035589,13.8253566 C218.753861,19.9980288 186.285589,56.4088875 186.285589,100.403117 C186.285589,144.397347 218.753861,180.808206 261.035589,186.980878 Z" id="Oval-7-Copy-23" fill="#C8FAEF" sketch:type="MSShapeGroup" transform="translate(210.910589, 100.403117) rotate(36.000000) translate(-210.910589, -100.403117) "></path>
                <path d="M296.137469,196.114793 C291.975357,196.722416 287.718154,197.037032 283.387469,197.037032 C235.062553,197.037032 195.887469,157.861948 195.887469,109.537032 C195.887469,61.2121166 235.062553,22.0370322 283.387469,22.0370322 C287.718154,22.0370322 291.975357,22.3516484 296.137469,22.9592713 C253.85574,29.1319436 221.387469,65.5428023 221.387469,109.537032 C221.387469,153.531262 253.85574,189.942121 296.137469,196.114793 Z" id="Oval-7-Copy-14" fill="#50E3C2" sketch:type="MSShapeGroup" transform="translate(246.012469, 109.537032) rotate(56.000000) translate(-246.012469, -109.537032) "></path>
                <path d="M319.204694,211.759339 C315.042583,212.366962 310.78538,212.681578 306.454694,212.681578 C258.129779,212.681578 218.954694,173.506493 218.954694,125.181578 C218.954694,76.8566621 258.129779,37.6815777 306.454694,37.6815777 C310.78538,37.6815777 315.042583,37.9961939 319.204694,38.6038169 C276.922966,44.7764891 244.454694,81.1873478 244.454694,125.181578 C244.454694,169.175808 276.922966,205.586666 319.204694,211.759339 Z" id="Oval-7-Copy-15" fill="#C7D0DA" sketch:type="MSShapeGroup" transform="translate(269.079694, 125.181578) rotate(72.000000) translate(-269.079694, -125.181578) "></path>
                <path d="M337.056859,233.224613 C332.894748,233.832236 328.637545,234.146852 324.306859,234.146852 C275.981944,234.146852 236.806859,194.971768 236.806859,146.646852 C236.806859,98.3219369 275.981944,59.1468525 324.306859,59.1468525 C328.637545,59.1468525 332.894748,59.4614687 337.056859,60.0690916 C294.775131,66.2417638 262.306859,102.652623 262.306859,146.646852 C262.306859,190.641082 294.775131,227.051941 337.056859,233.224613 Z" id="Oval-7-Copy-16" fill="#8EAFD5" sketch:type="MSShapeGroup" transform="translate(286.931859, 146.646852) rotate(88.000000) translate(-286.931859, -146.646852) "></path>
                <path d="M348.373588,258.735392 C344.211477,259.343015 339.954274,259.657632 335.623588,259.657632 C287.298672,259.657632 248.123588,220.482547 248.123588,172.157632 C248.123588,123.832716 287.298672,84.6576315 335.623588,84.6576315 C339.954274,84.6576315 344.211477,84.9722477 348.373588,85.5798706 C306.09186,91.7525429 273.623588,128.163402 273.623588,172.157632 C273.623588,216.151861 306.09186,252.56272 348.373588,258.735392 Z" id="Oval-7-Copy-17" fill="#4990E2" sketch:type="MSShapeGroup" transform="translate(298.248588, 172.157632) rotate(104.000000) translate(-298.248588, -172.157632) "></path>
                <path d="M352.155052,286.423733 C347.992941,287.031356 343.735738,287.345973 339.405052,287.345973 C291.080137,287.345973 251.905052,248.170888 251.905052,199.845973 C251.905052,151.521057 291.080137,112.345973 339.405052,112.345973 C343.735738,112.345973 347.992941,112.660589 352.155052,113.268212 C309.873324,119.440884 277.405052,155.851743 277.405052,199.845973 C277.405052,243.840202 309.873324,280.251061 352.155052,286.423733 Z" id="Oval-7-Copy-18" fill="#116BD4" sketch:type="MSShapeGroup" transform="translate(302.030052, 199.845973) rotate(120.000000) translate(-302.030052, -199.845973) "></path>
                <path d="M348.187243,314.026578 C344.025132,314.634201 339.767929,314.948817 335.437243,314.948817 C287.112327,314.948817 247.937243,275.773733 247.937243,227.448817 C247.937243,179.123902 287.112327,139.948817 335.437243,139.948817 C339.767929,139.948817 344.025132,140.263433 348.187243,140.871056 C305.905515,147.043728 273.437243,183.454587 273.437243,227.448817 C273.437243,271.443047 305.905515,307.853906 348.187243,314.026578 Z" id="Oval-7-Copy-19" fill="#D5B6DC" sketch:type="MSShapeGroup" transform="translate(298.062243, 227.448817) rotate(136.000000) translate(-298.062243, -227.448817) "></path>
                <path d="M336.756037,339.479307 C332.593926,340.08693 328.336723,340.401546 324.006037,340.401546 C275.681122,340.401546 236.506037,301.226462 236.506037,252.901546 C236.506037,204.576631 275.681122,165.401546 324.006037,165.401546 C328.336723,165.401546 332.593926,165.716163 336.756037,166.323786 C294.474309,172.496458 262.006037,208.907316 262.006037,252.901546 C262.006037,296.895776 294.474309,333.306635 336.756037,339.479307 Z" id="Oval-7-Copy-20" fill="#CB5BE2" sketch:type="MSShapeGroup" transform="translate(286.631037, 252.901546) rotate(152.000000) translate(-286.631037, -252.901546) "></path>
                <path d="M318.758837,360.813637 C314.596726,361.42126 310.339523,361.735877 306.008837,361.735877 C257.683922,361.735877 218.508837,322.560792 218.508837,274.235877 C218.508837,225.910961 257.683922,186.735877 306.008837,186.735877 C310.339523,186.735877 314.596726,187.050493 318.758837,187.658116 C276.477109,193.830788 244.008837,230.241647 244.008837,274.235877 C244.008837,318.230107 276.477109,354.640965 318.758837,360.813637 Z" id="Oval-7-Copy-21" fill="#BD0FE1" sketch:type="MSShapeGroup" transform="translate(268.633837, 274.235877) rotate(168.000000) translate(-268.633837, -274.235877) "></path>
                <path d="M295.560912,376.310059 C291.398801,376.917682 287.141597,377.232298 282.810912,377.232298 C234.485996,377.232298 195.310912,338.057214 195.310912,289.732298 C195.310912,241.407383 234.485996,202.232298 282.810912,202.232298 C287.141597,202.232298 291.398801,202.546914 295.560912,203.154537 C253.279184,209.32721 220.810912,245.738068 220.810912,289.732298 C220.810912,333.726528 253.279184,370.137387 295.560912,376.310059 Z" id="Oval-7-Copy-22" fill="#4E8F07" sketch:type="MSShapeGroup" transform="translate(245.435912, 289.732298) rotate(184.000000) translate(-245.435912, -289.732298) "></path>
            </g>
        </g>
    </g>
</svg>