<?xml version="1.0" encoding="UTF-8" standalone="no"?>
<svg width="414px" height="244px" viewBox="0 0 414 244" version="1.1" xmlns="http://www.w3.org/2000/svg" xmlns:xlink="http://www.w3.org/1999/xlink" xmlns:sketch="http://www.bohemiancoding.com/sketch/ns">
    <!-- Generator: Sketch 3.3.2 (12043) - http://www.bohemiancoding.com/sketch -->
    <title>swrl + Oval 1 Copy</title>
    <desc>Created with Sketch.</desc>
    <defs></defs>
    <g id="Page-1" stroke="none" stroke-width="1" fill="none" fill-rule="evenodd" sketch:type="MSPage">
        <g id="swrl-+-Oval-1-Copy" sketch:type="MSLayerGroup" fill="#333333">
            <path d="M304.604676,78.8023549 L336.672572,78.8023549 L336.672572,106.65289 C343.101847,96.0012283 348.703025,88.7210737 353.476275,84.8122071 C358.713632,80.4120341 365.006856,77.49046 372.356039,76.0474549 L372.356039,22.5149585 L393.810131,2.90882861e-14 L414,22.5149585 L414,238.576475 L372.356039,238.576475 L372.356039,117.901095 L372.356039,117.901095 C358.388178,120.943537 348.831676,135.980061 343.686291,145.778493 C340.471654,151.934958 338.864359,173.421795 338.864359,186.223333 L338.864359,238.576475 L296.92816,238.576475 L296.92816,131.928261 L266.107538,238.576475 L217.309583,238.576475 L198.308248,149.208507 L179.014674,238.576475 L129.778362,238.576475 L127.222707,229.444176 C115.470735,239.148106 97.5139449,244 73.3518182,244 C48.3166103,244 29.8327215,238.698679 17.8995971,228.095879 C5.96647269,217.493078 -1.27897692e-13,203.983261 -1.27897692e-13,187.566022 L20.0585077,168.053058 L42.2284372,187.566022 C43.1051565,194.992868 45.0046866,200.269759 47.9270844,203.396852 C53.0899872,208.966987 62.6363435,211.752012 76.5664398,211.752012 C84.7491536,211.752012 91.2513912,210.53051 96.0733476,208.087468 C100.895304,205.644427 103.306246,201.97992 103.306246,197.093836 C103.306246,192.403197 101.35801,188.836409 97.4614796,186.393368 C93.5649492,183.950326 79.099297,179.748358 54.0640891,173.787336 C36.042636,169.29214 23.3303962,163.673228 15.9269884,156.930434 C8.52358064,150.285361 4.82193227,140.708781 4.82193227,128.200409 C4.82193227,113.444437 10.5935814,100.765242 22.1370527,90.1624414 C33.6805241,79.559641 49.9239416,74.2583203 70.8677925,74.2583203 C90.7400976,74.2583203 106.934809,78.2404183 119.452413,86.2047339 C128.907526,92.2205416 133.612266,101.5397 136.146038,114.162388 L154.618619,181.421314 L177.559327,78.8023549 L219.787764,78.8023549 L244.043545,181.86106 L268.883802,78.8023549 L304.604676,78.8023549 Z M95.5822475,116.381146 C95.3381129,115.831835 95.0878426,115.276382 94.8313347,114.714886 C90.2529115,109.04703 82.4599676,106.213144 71.4522692,106.213144 C62.392836,106.213144 55.9393043,107.630087 52.0914805,110.464015 C48.2436567,113.297944 46.3197737,116.62043 46.3197737,120.431575 C46.3197737,125.219937 48.3654215,128.689004 52.4567784,130.83888 C56.5481353,133.086478 71.0137875,136.946426 95.8541689,142.418839 C98.484777,143.039766 101.010912,143.71124 103.432575,144.433263 L95.5822475,116.381146 Z" id="swrl" sketch:type="MSShapeGroup"></path>
            <circle id="Oval-1" sketch:type="MSShapeGroup" cx="316" cy="44" r="22"></circle>
        </g>
    </g>
</svg>