<?xml version="1.0" encoding="UTF-8" standalone="no"?>
<svg width="51px" height="30px" viewBox="0 0 51 30" version="1.1" xmlns="http://www.w3.org/2000/svg" xmlns:xlink="http://www.w3.org/1999/xlink" xmlns:sketch="http://www.bohemiancoding.com/sketch/ns">
    <!-- Generator: Sketch 3.3.2 (12043) - http://www.bohemiancoding.com/sketch -->
    <title>swrl + Oval 1 Copy</title>
    <desc>Created with Sketch.</desc>
    <defs></defs>
    <g id="Page-1" stroke="none" stroke-width="1" fill="none" fill-rule="evenodd" sketch:type="MSPage">
        <g id="swrl-+-Oval-1-Copy" sketch:type="MSLayerGroup" fill="#FFFFFF">
            <path d="M37.405682,9.64262843 L41.3406665,9.64262843 L41.3406665,13.0493241 C42.1295894,11.7464059 42.8168984,10.8558926 43.4026139,10.3777575 C44.045279,9.83952545 44.8175074,9.48215659 45.7193104,9.30564726 L45.7193104,2.75751722 L48.3518972,0.0034727298 L50.8293538,2.75751722 L50.8293538,29.1863035 L45.7193104,29.1863035 L45.7193104,14.425212 L45.7193104,14.425212 C44.0053432,14.7973655 42.8326848,16.6366429 42.2013054,17.8351936 C41.8068439,18.5882564 41.6096162,21.2165404 41.6096162,22.7824329 L41.6096162,29.1863035 L36.4637127,29.1863035 L36.4637127,16.1410241 L32.6817785,29.1863035 L26.6938834,29.1863035 L24.3622691,18.254755 L21.994795,29.1863035 L15.9531099,29.1863035 L15.6395107,28.0692347 C14.1974508,29.2562258 11.9940106,29.8497126 9.02912646,29.8497126 C5.95710835,29.8497126 3.68898893,29.2012516 2.22470014,27.9043101 C0.760411354,26.6073686 0.0282779426,24.9548389 0.0282779426,22.9466715 L2.48961555,20.5598329 L5.21004133,22.9466715 C5.31762173,23.8551282 5.5507091,24.5006009 5.90931044,24.883109 C6.54283947,25.5644515 7.71425292,25.9051177 9.42358596,25.9051177 C10.4276697,25.9051177 11.2255457,25.7557027 11.8172379,25.4568683 C12.4089301,25.1580338 12.7047718,24.7097889 12.7047718,24.11212 C12.7047718,23.5383578 12.4657078,23.1020661 11.9875727,22.8032316 C11.5094376,22.5043972 9.73438759,21.9904097 6.66236948,21.2612536 C4.45099458,20.7113982 2.89110217,20.0240893 1.98264545,19.1993062 C1.07418873,18.3864765 0.619967188,17.2150631 0.619967188,15.6850307 C0.619967188,13.8800707 1.3281942,12.3291432 2.74466948,11.0322017 C4.16114475,9.73526016 6.15434061,9.08679914 8.72431685,9.08679914 C11.1628059,9.08679914 13.1500252,9.57389198 14.6860342,10.5480923 C15.8462514,11.2839498 16.4235603,12.4238754 16.7344741,13.9678908 L19.001206,22.1950468 L21.8162124,9.64262843 L26.9979758,9.64262843 L29.974352,22.2488367 L33.0224481,9.64262843 L37.405682,9.64262843 Z M11.756976,14.2392908 C11.7270188,14.1720987 11.6963086,14.1041554 11.6648331,14.0354728 C11.1030243,13.3421769 10.1467685,12.9955342 8.79603676,12.9955342 C7.68437262,12.9955342 6.89247321,13.1688555 6.42031479,13.5155035 C5.94815636,13.8621514 5.71208069,14.2685602 5.71208069,14.7347419 C5.71208069,15.3204574 5.96309786,15.744796 6.46513973,16.0077703 C6.9671816,16.282698 8.74223158,16.7548493 11.7903429,17.4242385 C12.1131394,17.5001906 12.4231161,17.5823258 12.7202734,17.6706441 L11.756976,14.2392908 Z" id="swrl" sketch:type="MSShapeGroup"></path>
            <ellipse id="Oval-1" sketch:type="MSShapeGroup" cx="38.767571" cy="5.42936499" rx="2.69880716" ry="2.69880716"></ellipse>
        </g>
    </g>
</svg>